<svg xmlns="http://www.w3.org/2000/svg" version="1.0" viewBox="0 0 600 600">
  <path d="M283.9 23.5a202.6 202.6 0 00-43.4 8.6l-7.5 2.4-3 1.2-9 3.8a206.9 206.9 0 00-47 28.3 362.8 362.8 0 00-29.8 29.7 210.1 210.1 0 00-31.3 54.8 171.3 171.3 0 00-12.3 68.7c-.1 18 1.6 27.8 8.5 51.5a352.3 352.3 0 0011.9 32.1c0 4.3 34.6 71.5 46.7 90.6 1.2 2.1 2.3 4 2.3 4.3a546 546 0 0112.4 20.5l9.9 16.4c9.7 15.9 58.4 87.1 72.7 106.4l7.2 10c7.3 10.3 16 21.1 18.2 22.5 5.7 3.8 15.9 3 20.9-1.7 2.6-2.4 22.2-28.5 35.4-47.1A2030.4 2030.4 0 00438.3 386c4.4-7.7 20.9-38.8 23.9-45a994.8 994.8 0 0016.2-35.2 321 321 0 0019.1-60.6c2.6-7.7 2.7-45.6.1-59.7-8.3-45.3-32-84.9-70.3-117.7A203.6 203.6 0 00325 24.3a487 487 0 00-41.1-.8zm38.8 74.9a124.2 124.2 0 0183 53.3 133 133 0 0120.8 51.3c1.3 8.5 1.3 33.9 0 41A129.1 129.1 0 01319 347.8c-6.1.9-29.3.9-35.8-.1a126.7 126.7 0 01-108.4-123.5 121.7 121.7 0 0134-87.4 127.5 127.5 0 01113.9-38.4z"/>
  <path d="M228.3 170.6l-18.1 24-6.2 8.5 5.2 5.6 7.3 7.8 23.1 25 12.3 13.4L264 268l12.5 13.5 11.8 12.9c6 6.9 11 11.6 12.4 11.6 1 0 1.3-.6.9-1.6-.3-.8-.2-1.3.3-1 .5.3 5.3-4.2 10.7-10.1l12.4-13.4 11.5-12.4L348 255l23.5-25.5 23.3-25.1c1-1.1-.9-4.2-10.2-16.6L368.3 166a95.7 95.7 0 00-7.1-8.8l-2.3-2.2H240.1l-11.8 15.6z"/>
</svg>