<svg xmlns="http://www.w3.org/2000/svg" x="0" y="0" version="1.1" viewBox="0 0 300.8 57.1" xml:space="preserve">
  <path fill="#fff" d="M55.9 0L40.2 27.3l-5.7-9.9-11.6 19.9-5.7-9.9L0 57.1h88.9L55.9 0zM14.3 52.2H8.6l8.6-14.9 2.9 5-5.8 9.9zm5.8 0l2.9-5 2.9 5h-5.8zm8.6-5l-2.9-5 8.6-14.9 2.9 5-8.6 14.9zm2.8 5l8.6-14.9 8.6 14.9H31.5zm23 0L43 32.3 55.9 9.9l24.4 42.2-25.8.1z"/>
  <path fill="#fff" d="M100 42.2c-2.3 0-4.4-.5-6.3-1.6a12.3 12.3 0 01-6-10.8c0-3.5 1.2-6.5 3.5-8.9 2.3-2.4 5.3-3.6 8.8-3.6a11.5 11.5 0 0111.5 9.5h-5.2c-.3-.9-.8-1.7-1.4-2.4a6 6 0 00-2.2-1.6c-.8-.4-1.8-.6-2.8-.6-2 0-3.7.7-5 2.2a7.7 7.7 0 00-2 5.4 8 8 0 002 5.4c1.3 1.4 3 2.1 5 2.1a6 6 0 004-1.3 6.8 6.8 0 002.3-3.6h5.2c-.5 2.9-1.9 5.3-4 7.1a10.4 10.4 0 01-7.4 2.7zM122.8 42.2c-1.9 0-3.6-.4-5.1-1.3a9.3 9.3 0 01-4.9-8.4 9 9 0 012.8-6.9 9.9 9.9 0 017.1-2.8 9.6 9.6 0 019.9 9.7c0 2.8-.9 5.1-2.8 6.9s-4.2 2.8-7 2.8zm0-4.7c1.4 0 2.6-.5 3.5-1.4.9-.9 1.4-2.1 1.4-3.6s-.5-2.7-1.4-3.6a4.8 4.8 0 00-3.5-1.4c-1.4 0-2.6.5-3.5 1.4-.9.9-1.4 2.1-1.4 3.6 0 .7.1 1.4.4 2a4.4 4.4 0 002.5 2.6c.6.3 1.3.4 2 .4zM145.7 22.9a6 6 0 014.9 2.1 8.4 8.4 0 011.8 5.6v11.1h-5V31.3c0-2.7-1.1-4.1-3.2-4.1a4 4 0 00-2.2.6c-.6.4-1.1.9-1.4 1.7s-.5 1.6-.5 2.5v9.7h-5V23.3h3.4l1 2.3c.3-.4.7-.8 1.2-1.1l1.4-.9 1.6-.5c.7-.2 1.3-.2 2-.2zM162.5 42.2c-1.5 0-2.9-.3-4-.8a5.6 5.6 0 01-2.7-2.3c-.6-1-1-2.1-1-3.4h4.8c0 .5.2 1 .4 1.4s.6.6 1.1.8 1 .3 1.6.3l1.3-.2a2 2 0 001-.6c.2-.3.4-.6.4-1 0-.6-.3-1-.9-1.3-.6-.3-1.5-.5-2.7-.7l-1.9-.3a7 7 0 01-1.7-.6c-.7-.3-1.2-.6-1.6-1a5 5 0 01-1.4-3.7c0-1.7.7-3.1 2-4.2 1.4-1.1 3.1-1.6 5.4-1.6s4 .6 5.3 1.7c1.3 1.1 2 2.6 2 4.4h-4.7c0-1.5-.9-2.2-2.8-2.2a3 3 0 00-1.8.5c-.4.3-.6.7-.6 1.3l.2.6.4.5.8.3.9.2 1.1.2.9.2.9.2 1 .3.9.3.9.4.7.5.7.7.5.8c.2.3.3.6.3 1l.1 1.2c0 1.9-.7 3.4-2.1 4.5s-3.4 1.6-5.7 1.6zM181.4 42.2a10 10 0 01-8.7-4.8c-.8-1.5-1.3-3.1-1.3-4.9a9 9 0 012.8-6.9 9.9 9.9 0 017.1-2.8 9.6 9.6 0 019.9 9.7c0 2.8-.9 5.1-2.8 6.9s-4.1 2.8-7 2.8zm0-4.7c1.4 0 2.6-.5 3.5-1.4.9-.9 1.4-2.1 1.4-3.6s-.5-2.7-1.4-3.6c-.9-.9-2.1-1.4-3.5-1.4s-2.6.5-3.5 1.4c-.9.9-1.4 2.1-1.4 3.6 0 .7.1 1.4.4 2a4.4 4.4 0 002.5 2.6c.7.3 1.3.4 2 .4zM204.3 22.9a6 6 0 014.9 2.1 8.4 8.4 0 011.8 5.6v11.1h-5V31.3c0-2.7-1.1-4.1-3.2-4.1a4 4 0 00-2.2.6c-.6.4-1.1.9-1.4 1.7-.3.7-.5 1.6-.5 2.5v9.7h-5V23.3h3.4l1 2.3c.3-.4.7-.8 1.2-1.1l1.4-.9 1.6-.5c.7-.2 1.3-.2 2-.2zM229.5 23.3h3.7v18.4h-3.9l-.4-1.6a8.7 8.7 0 01-6 2.2 9 9 0 01-6.9-2.8 9.6 9.6 0 01-2.7-7 9.3 9.3 0 019.6-9.7c2.3 0 4.3.7 6 2.2l.6-1.7zm-9.8 12.8c.9 1 2.1 1.4 3.6 1.4 1.4 0 2.6-.5 3.6-1.4 1-1 1.4-2.2 1.4-3.6 0-1.5-.5-2.7-1.4-3.6-1-1-2.1-1.4-3.6-1.4-1 0-1.8.2-2.6.7a4 4 0 00-1.8 1.8c-.4.8-.6 1.6-.6 2.6 0 1.3.5 2.5 1.4 3.5zM247.2 22.9a6 6 0 014.9 2.1 8.4 8.4 0 011.8 5.6v11.1h-5V31.3c0-2.7-1.1-4.1-3.2-4.1a4 4 0 00-2.2.6c-.6.4-1.1.9-1.4 1.7-.3.7-.5 1.6-.5 2.5v9.7h-5V23.3h3.4l1 2.3c.3-.4.7-.8 1.2-1.1l1.4-.9 1.6-.5c.8-.2 1.4-.2 2-.2zM266 42.2a9 9 0 01-4.9-1.3 9 9 0 01-3.5-3.5c-.8-1.5-1.3-3.2-1.3-5 0-2.7.9-5 2.8-6.9a9.8 9.8 0 017-2.8 9.2 9.2 0 019.3 7.6h-4.9c-.4-.9-1-1.6-1.8-2.1a5 5 0 00-2.7-.8c-1.3 0-2.5.5-3.3 1.4-.9 1-1.3 2.1-1.3 3.6s.5 2.6 1.4 3.6c.9 1 2 1.5 3.3 1.5a4.7 4.7 0 004.5-3.1h5a9.2 9.2 0 01-3.3 5.6 9.7 9.7 0 01-6.3 2.2zM295.6 32.4l-.1 1.5h-13.9c.2 1.2.7 2.2 1.5 2.9.8.7 1.8 1 3 1a4.6 4.6 0 003.9-2.1h5.2a9.4 9.4 0 01-9.1 6.6 9 9 0 01-6.8-2.8 9.7 9.7 0 01-2.7-6.9 10.6 10.6 0 011.8-5.8c.6-.8 1.3-1.5 2-2.1a10.6 10.6 0 015.7-1.8 9 9 0 014.9 1.3 9.4 9.4 0 014.6 8.2zm-9.5-5.4c-1.1 0-2 .3-2.8.9a4 4 0 00-1.5 2.6h8.9c-.2-.7-.6-1.4-1-1.9s-.9-.9-1.5-1.2c-.7-.3-1.4-.4-2.1-.4zM296.4 18.4c.5-.5 1.1-.8 1.8-.8 1.4 0 2.6 1.1 2.6 2.5l-.2 1-.5.8c-.5.5-1.1.8-1.8.8a2.6 2.6 0 01-2.6-2.6c-.1-.6.2-1.3.7-1.7zm1.8 3.7l.7-.1.6-.4.4-.6.1-.8a2 2 0 00-1.9-1.9 2 2 0 00-1.9 1.9c0 .5.2 1 .6 1.3.4.4.9.6 1.4.6zm1.1-2.3c0 .3-.1.6-.4.8l.5.9h-.7l-.4-.7h-.3v.7h-.7V19h1.1c.2 0 .5.1.7.3l.2.5zm-1.3-.3v.5h.4c.2 0 .3-.1.3-.3 0-.2-.1-.3-.3-.3h-.4z"/>
</svg>