<svg xmlns="http://www.w3.org/2000/svg" viewBox="0 0 400 120">
  <g fill="none" fill-rule="nonzero">
    <path fill="#FFF" d="M341.4 40c-3.8 0-8.4.7-12.7 2.2l-2.5 1 2 7.5.5-.1 2.2-.7s5-1.7 9.3-1.7c2.9 0 5 .6 6.4 1.8 1.2 1 1.9 2.9 2 5.5H341a21 21 0 00-12.9 3.5 10.8 10.8 0 00-4.3 9 11 11 0 003.7 8.6 13.4 13.4 0 009.3 3.1 21.6 21.6 0 0011.7-3v3h8.4V55c0-4-1.3-7.5-3.8-10.2a15.2 15.2 0 00-11.8-4.8zm7.2 23.5V67a14 14 0 01-4.3 3.3c-2 1-3.6 1.4-5.4 1.6-4.5.3-7.2-1.3-7.2-4.1 0-1.5 1.5-2.8 3-3.4a22 22 0 017.2-.8h6.7zM301.4 40a20 20 0 00-9.3 2v-2h-9v51.2h9V77.6a20 20 0 009.3 2.1c5.7 0 10.4-1.8 13.9-5.5 3.4-3.7 5.2-8.5 5.2-14.4 0-5.8-1.8-10.6-5.2-14.3a18.3 18.3 0 00-13.9-5.5zm-7 28.9c-1-1-1.7-2.1-2.4-3.6a14 14 0 01-1-5.5c0-2.2.4-4 1-5.5a9.4 9.4 0 019.4-6.1c2.8 0 5.1.8 7 2.6 2.3 2 3.4 5.1 3.4 9 0 4-1.1 7-3.4 9-1 1-2.1 1.6-3.3 2-2.5.9-4.9.9-7.4 0-1.2-.4-2.3-1-3.3-2zM390 28.5V42a20 20 0 00-9.4-2.1c-5.7 0-10.4 1.8-13.9 5.5a20.2 20.2 0 00-5.2 14.3c0 5.9 1.8 10.7 5.2 14.4 3.5 3.7 8.1 5.5 13.9 5.5a20 20 0 009.3-2.1v2.1h9V28.5h-9zm1 31.4c0 2.1-.4 4-1 5.5a9.4 9.4 0 01-9.4 6 10 10 0 01-7-2.5 11.8 11.8 0 01-3.4-9c0-4 1.1-7 3.4-9.1 1-.9 2.1-1.6 3.3-2a11.1 11.1 0 017.4 0 9.1 9.1 0 015.7 5.6 14 14 0 011 5.5zM278.8 47l-5.5-7.2-19.7 15.6V28.5h-9.1v51.2h9.1V67l4.7-3.8 14.1 16.7 6.9-6-13.9-16.3L278.8 47M177.5 40c-6 0-11 1.9-14.5 5.5a19.8 19.8 0 00-5.3 14.3c0 5.9 1.8 10.7 5.3 14.4 3.5 3.6 8.5 5.5 14.5 5.5s11-2 14.4-5.5c3.6-3.7 5.4-8.5 5.4-14.4 0-5.8-1.8-10.7-5.4-14.3a19.4 19.4 0 00-14.4-5.5zm7.2 28.9c-1 .8-2.2 1.5-3.5 2a12 12 0 01-3.7.5 12 12 0 01-3.8-.6c-1.2-.4-2.4-1-3.4-2-2.3-2-3.5-5-3.5-9s1.1-7 3.5-9c2-1.8 4.3-2.6 7.2-2.6 2.8 0 5.3.8 7.2 2.6 2.3 2 3.5 5 3.5 9s-1.2 7-3.5 9zM220.1 40c-6 0-11 1.9-14.4 5.5a19.8 19.8 0 00-5.4 14.3c0 5.9 1.8 10.7 5.4 14.4 3.4 3.6 8.4 5.5 14.4 5.5s11-2 14.5-5.5c3.5-3.7 5.3-8.5 5.3-14.4 0-5.8-1.8-10.7-5.3-14.3A19.4 19.4 0 00220 40zm7.2 28.9c-1 .8-2.2 1.5-3.4 2a11.8 11.8 0 01-7.5 0c-1.3-.5-2.5-1.2-3.5-2-2.3-2-3.5-5.2-3.5-9.2 0-3.9 1.2-6.8 3.5-9 2-1.7 4.4-2.5 7.2-2.5 2.9 0 5.3.8 7.2 2.6 2.4 2 3.5 5 3.5 9s-1.2 7-3.5 9zM128.2 59.8c0 1.7.3 4.2 1.3 6a10.7 10.7 0 009.6 5.6 15 15 0 0011-5.2l.2-.3 5.9 5.8s-1.7 2-3.5 3.3a22.7 22.7 0 01-13.9 4.7c-6.6 0-12.7-3-16-7.7a21 21 0 01-3.6-12.2 21 21 0 013.6-12.2c3.3-4.7 9.4-7.6 16-7.6a22.7 22.7 0 0117.4 8l-5.9 5.7-.3-.3a15 15 0 00-7.6-4.8c-1.1-.3-2.2-.4-3.3-.4a10.7 10.7 0 00-9.6 5.6 14 14 0 00-1.3 6M53.1 31.3c5.6 0 10.3 4 11.1 9.4l-1 2.2 4.7 2.5A11.2 11.2 0 0189.7 49a11.2 11.2 0 01-12.2 11l.4-2.9c.2-1.5-.8-2.8-2.3-3-1.4-.2-2.7.8-2.9 2.3l-2 17H36.3a2.7 2.7 0 00-2.6 2.8c0 1.5 1.2 2.7 2.6 2.7H70l-1 7.9H29.5l3.4-27.2h-.3c-6.2 0-11.3-5-11.3-11.1a11.3 11.3 0 0120-7c.3.3.7.3.8-.2.5-5.6 5.3-10 11.1-10z"/>
    <path fill="#CCC" d="M53.9 5a54.8 54.8 0 11.2 109.5A54.8 54.8 0 0154 5zm-.8 20.8c-5.7 0-10.8 3-13.8 7.6A16.5 16.5 0 1027 64l-3 25c-.2.8 0 1.6.6 2.2.5.6 1.2 1 2 1h44.8c1.3 0 2.4-1.1 2.6-2.5l3-24.4 1.6.1A16.5 16.5 0 1068.3 36c-2.5-6-8.3-10.2-15.2-10.2z"/>
  </g>
</svg>