<svg xmlns="http://www.w3.org/2000/svg" viewBox="0 0 200 278">
  <g fill="none" fill-rule="evenodd">
    <path fill="#FF3C3C" d="M70 66L52 90h27zM148 90h-27l9-24z"/>
    <path fill="#FF5050" d="M121 90l-21-24-21 24h42"/>
    <path fill="#FF6464" d="M100 66L79 90l-9-24z"/>
    <path fill="#FF3C3C" d="M100 66l21 24 9-24z"/>
    <path fill="#FF6464" d="M52 90l48 52-21-52H52"/>
    <path fill="#FF3C3C" d="M100 142L79 90h42z"/>
    <path fill="red" d="M100 142l21-52h27z"/>
    <g fill="#FFF" fill-rule="nonzero">
      <path d="M192.7 61a99.7 99.7 0 00-53.4-53.2 96.7 96.7 0 00-39-7.8A100.2 100.2 0 000 99.9c0 12.8 5 29.6 15 51.3A627 627 0 0047 208c22.9 35.7 45.8 66 46.1 66.4 1.5 2.1 4 3.2 6.8 3.2 3 0 5-1 6.8-3.2.4-.4 23.3-30.3 46.3-66.4 13.6-21 24.3-40.3 31.8-56.7 10-21.4 15-38.1 15-51.3a85.4 85.4 0 00-7-39zm-47.3 83.5a63.6 63.6 0 01-89.5 0 63 63 0 0144.8-107.8c16.8 0 33 6.5 44.7 18.6a63 63 0 010 89.2z"/>
    </g>
  </g>
</svg>